# xmcd
#
# Track frame offsets: 
#        150
#        18261
#        38085
#        59952
#        80481
#        99505
#        118255
#        141465
#        155928
#        170574
#        189909
#        209633
#        229554
#        250036
#        267862
#        287685
#
# Disc length: 4092 seconds
#
# Revision: 3
# Processed by: cddbd v1.5.2PL0 Copyright (c) Steve Scherf et al.
# Submitted via: ExactAudioCopyFreeDBPlugin 1.0
#
DISCID=ed0ffa10
DTITLE=Little Big Town - A Place To Land (Expanded Edition)
DYEAR=2008
DGENRE=Country
TTITLE0=Fine Line
TTITLE1=I'm With The Band
TTITLE2=That's Where I'll Be
TTITLE3=Evangeline
TTITLE4=Vapor
TTITLE5=Novocaine
TTITLE6=Only What You Make Of It
TTITLE7=A Place To Land
TTITLE8=Firebird Fly
TTITLE9=To Know Love
TTITLE10=Lonely Enough
TTITLE11=Fury
TTITLE12=Good Lord Willing
TTITLE13=Love Profound
TTITLE14=You're Gonna Love Me
TTITLE15=Life In A Northern Town (Live) (featuring Sugarland and Jake Ow
TTITLE15=en)
EXTD=
EXTT0=
EXTT1=
EXTT2=
EXTT3=
EXTT4=
EXTT5=
EXTT6=
EXTT7=
EXTT8=
EXTT9=
EXTT10=
EXTT11=
EXTT12=
EXTT13=
EXTT14=
EXTT15=
PLAYORDER=
